<svg width="28" height="28" viewBox="0 0 28 28" fill="none" xmlns="http://www.w3.org/2000/svg">
<path d="M12.8333 4.66677L4.66668 4.66677C4.04784 4.66677 3.45435 4.9126 3.01677 5.35019C2.57918 5.78777 2.33335 6.38126 2.33335 7.0001L2.33334 23.3334C2.33334 23.9523 2.57918 24.5458 3.01676 24.9834C3.45435 25.4209 4.04784 25.6668 4.66668 25.6668L21 25.6668C21.6188 25.6668 22.2123 25.4209 22.6499 24.9834C23.0875 24.5458 23.3333 23.9523 23.3333 23.3334L23.3333 15.1668M21.5833 2.91677C22.0475 2.45264 22.677 2.1919 23.3333 2.1919C23.9897 2.1919 24.6192 2.45264 25.0833 2.91677C25.5475 3.3809 25.8082 4.0104 25.8082 4.66677C25.8082 5.32315 25.5475 5.95264 25.0833 6.41677L14 17.5001L9.33335 18.6668L10.5 14.0001L21.5833 2.91677Z" stroke="white" stroke-width="2" stroke-linecap="round" stroke-linejoin="round"/>
</svg>
